<mxfile host="www.draw.io" modified="2020-01-25T09:48:16.175Z" agent="Mozilla/5.0 (Windows NT 6.1; Win64; x64; rv:72.0) Gecko/20100101 Firefox/72.0" etag="_hQF1son1Sb1aKnUM3Dg" version="12.5.6" type="github">
  <diagram id="dHWgx3uqRyAXGrRmZ57P" name="Page-1">
    <mxGraphModel dx="1422" dy="830" grid="1" gridSize="10" guides="1" tooltips="1" connect="1" arrows="1" fold="1" page="1" pageScale="1" pageWidth="1920" pageHeight="1200" math="0" shadow="0">
      <root>
        <mxCell id="0"/>
        <mxCell id="1" parent="0"/>
        <mxCell id="PrwOAb1tr_43_Qb7wZnU-9" style="edgeStyle=orthogonalEdgeStyle;rounded=0;orthogonalLoop=1;jettySize=auto;html=1;exitX=0.5;exitY=0;exitDx=0;exitDy=0;entryX=0.5;entryY=0;entryDx=0;entryDy=0;" edge="1" parent="1" source="PrwOAb1tr_43_Qb7wZnU-1" target="PrwOAb1tr_43_Qb7wZnU-7">
          <mxGeometry relative="1" as="geometry"/>
        </mxCell>
        <mxCell id="PrwOAb1tr_43_Qb7wZnU-11" style="edgeStyle=orthogonalEdgeStyle;rounded=0;orthogonalLoop=1;jettySize=auto;html=1;exitX=1;exitY=1;exitDx=0;exitDy=0;entryX=1;entryY=0.5;entryDx=0;entryDy=0;" edge="1" parent="1" source="PrwOAb1tr_43_Qb7wZnU-1" target="PrwOAb1tr_43_Qb7wZnU-3">
          <mxGeometry relative="1" as="geometry">
            <Array as="points">
              <mxPoint x="270" y="20"/>
              <mxPoint x="270" y="60"/>
            </Array>
          </mxGeometry>
        </mxCell>
        <mxCell id="PrwOAb1tr_43_Qb7wZnU-12" style="edgeStyle=orthogonalEdgeStyle;rounded=0;orthogonalLoop=1;jettySize=auto;html=1;exitX=1;exitY=0.5;exitDx=0;exitDy=0;entryX=1;entryY=0.5;entryDx=0;entryDy=0;" edge="1" parent="1" source="PrwOAb1tr_43_Qb7wZnU-1" target="PrwOAb1tr_43_Qb7wZnU-4">
          <mxGeometry relative="1" as="geometry">
            <Array as="points">
              <mxPoint x="550" y="30"/>
              <mxPoint x="300" y="30"/>
              <mxPoint x="300" y="140"/>
            </Array>
          </mxGeometry>
        </mxCell>
        <mxCell id="PrwOAb1tr_43_Qb7wZnU-1" value="class AskBidQuote" style="rounded=0;whiteSpace=wrap;html=1;flipH=0;flipV=1;direction=west;" vertex="1" parent="1">
          <mxGeometry x="550" y="40" width="570" height="80" as="geometry"/>
        </mxCell>
        <mxCell id="PrwOAb1tr_43_Qb7wZnU-3" value="__init__（）" style="rounded=1;whiteSpace=wrap;html=1;" vertex="1" parent="1">
          <mxGeometry x="110" y="30" width="120" height="60" as="geometry"/>
        </mxCell>
        <mxCell id="PrwOAb1tr_43_Qb7wZnU-4" value="symbol_to_stockname(self)" style="rounded=1;whiteSpace=wrap;html=1;" vertex="1" parent="1">
          <mxGeometry x="50" y="120" width="180" height="60" as="geometry"/>
        </mxCell>
        <mxCell id="PrwOAb1tr_43_Qb7wZnU-5" value="num_to_chinese(self, num)" style="rounded=1;whiteSpace=wrap;html=1;" vertex="1" parent="1">
          <mxGeometry x="50" y="220" width="180" height="60" as="geometry"/>
        </mxCell>
        <mxCell id="PrwOAb1tr_43_Qb7wZnU-7" value="quote_judeg_master(self)" style="rounded=1;whiteSpace=wrap;html=1;" vertex="1" parent="1">
          <mxGeometry x="705" y="150" width="260" height="60" as="geometry"/>
        </mxCell>
        <mxCell id="PrwOAb1tr_43_Qb7wZnU-14" value="sao_zapan_n(self)" style="rounded=1;whiteSpace=wrap;html=1;" vertex="1" parent="1">
          <mxGeometry x="50" y="320" width="180" height="60" as="geometry"/>
        </mxCell>
        <mxCell id="PrwOAb1tr_43_Qb7wZnU-15" value="" style="edgeStyle=elbowEdgeStyle;elbow=horizontal;endArrow=classic;html=1;entryX=1;entryY=0.5;entryDx=0;entryDy=0;" edge="1" parent="1" target="PrwOAb1tr_43_Qb7wZnU-5">
          <mxGeometry width="50" height="50" relative="1" as="geometry">
            <mxPoint x="540" y="40" as="sourcePoint"/>
            <mxPoint x="420" y="170" as="targetPoint"/>
            <Array as="points">
              <mxPoint x="320" y="190"/>
              <mxPoint x="320" y="199"/>
              <mxPoint x="320" y="120"/>
            </Array>
          </mxGeometry>
        </mxCell>
        <mxCell id="PrwOAb1tr_43_Qb7wZnU-16" value="" style="edgeStyle=elbowEdgeStyle;elbow=horizontal;endArrow=classic;html=1;exitX=1;exitY=0.375;exitDx=0;exitDy=0;exitPerimeter=0;entryX=1;entryY=0.5;entryDx=0;entryDy=0;" edge="1" parent="1" source="PrwOAb1tr_43_Qb7wZnU-1" target="PrwOAb1tr_43_Qb7wZnU-14">
          <mxGeometry width="50" height="50" relative="1" as="geometry">
            <mxPoint x="330" y="330" as="sourcePoint"/>
            <mxPoint x="380" y="280" as="targetPoint"/>
            <Array as="points">
              <mxPoint x="340" y="180"/>
            </Array>
          </mxGeometry>
        </mxCell>
        <mxCell id="PrwOAb1tr_43_Qb7wZnU-17" value="Text" style="text;html=1;align=center;verticalAlign=middle;resizable=0;points=[];autosize=1;" vertex="1" parent="1">
          <mxGeometry x="842" y="181" width="40" height="20" as="geometry"/>
        </mxCell>
        <mxCell id="PrwOAb1tr_43_Qb7wZnU-22" value="&lt;div&gt;所有盘口检测功能都在此类内完成&lt;/div&gt;" style="text;html=1;align=center;verticalAlign=middle;resizable=0;points=[];autosize=1;fillColor=#ffe6cc;strokeColor=#d79b00;" vertex="1" parent="1">
          <mxGeometry x="730" y="18" width="200" height="20" as="geometry"/>
        </mxCell>
        <mxCell id="PrwOAb1tr_43_Qb7wZnU-23" value="&lt;div&gt;调用其他函数的总入口&lt;/div&gt;" style="text;html=1;align=center;verticalAlign=middle;resizable=0;points=[];autosize=1;fillColor=#fff2cc;strokeColor=#d6b656;" vertex="1" parent="1">
          <mxGeometry x="680" y="130" width="140" height="20" as="geometry"/>
        </mxCell>
        <mxCell id="PrwOAb1tr_43_Qb7wZnU-24" value="&lt;div&gt;所有变量都在内&lt;/div&gt;" style="text;html=1;align=center;verticalAlign=middle;resizable=0;points=[];autosize=1;fillColor=#fff2cc;strokeColor=#d6b656;" vertex="1" parent="1">
          <mxGeometry x="90" y="10" width="100" height="20" as="geometry"/>
        </mxCell>
        <mxCell id="PrwOAb1tr_43_Qb7wZnU-25" value="股票代码转中文名" style="text;html=1;align=center;verticalAlign=middle;resizable=0;points=[];autosize=1;fillColor=#fff2cc;strokeColor=#d6b656;" vertex="1" parent="1">
          <mxGeometry x="50" y="100" width="110" height="20" as="geometry"/>
        </mxCell>
        <mxCell id="PrwOAb1tr_43_Qb7wZnU-26" value="&lt;div&gt;代码数字转汉字&lt;/div&gt;" style="text;html=1;align=center;verticalAlign=middle;resizable=0;points=[];autosize=1;fillColor=#fff2cc;strokeColor=#d6b656;" vertex="1" parent="1">
          <mxGeometry x="50" y="201" width="100" height="20" as="geometry"/>
        </mxCell>
        <mxCell id="PrwOAb1tr_43_Qb7wZnU-27" value="盘口价位变化检测" style="text;html=1;align=center;verticalAlign=middle;resizable=0;points=[];autosize=1;fillColor=#fff2cc;strokeColor=#d6b656;" vertex="1" parent="1">
          <mxGeometry x="50" y="300" width="110" height="20" as="geometry"/>
        </mxCell>
      </root>
    </mxGraphModel>
  </diagram>
</mxfile>
